
        <svg xmlns="http://www.w3.org/2000/svg" xmlns:xlink="http://www.w3.org/1999/xlink" version="1.1" width="3181.545084681616" 
        height="2470.6693374161405" viewBox="0 0 3181.545084681616 2470.6693374161405">
			
			<g transform="scale(9.077254234080803) translate(10, 10)">
				<defs id="SvgjsDefs1800"></defs><g id="SvgjsG1801" featureKey="7fz4Jz-0" transform="matrix(13.886403405310219,0,0,13.886403405310219,-13.886403405310219,-25.545613621240875)" fill="#f9f8eb"><path d="M1 20 l0 -16 l2 0 l0 14 l2.6 0 l0 2 l-4.6 0 z M6.8 20 l0 -16 l4.2 0 l0 1.6 l-2.2 0 l0 6 l1.8 0 l0 1.6 l-1.8 0 l0 6.8 l-2 0 z M12.4 20 l0 -16 l3.04 0 c2.06 0 2.74 1.28 2.74 3.58 l0 0.42 c0 1.38 -0.32 2.46 -0.68 3.24 l0 0.08 c0.74 0.62 1.2 1.84 1.3 3.96 l0 0.64 c-0.16 2.82 -0.9 4.08 -2.96 4.08 l-3.44 0 z M14.4 10.8 l1.04 0 c0.56 0 0.96 -0.66 0.96 -2.8 l0 -0.42 c0 -1.54 -0.36 -1.98 -0.96 -1.98 l-1.04 0 l0 5.2 z M14.4 18 l1.44 0 c0.6 0 1.02 -0.5 1.1 -2.08 l0 -0.64 c-0.08 -2.38 -0.5 -2.88 -1.1 -2.88 l-1.44 0 l0 5.6 z M20.2 20 l0 -16 l2 0 l0 14 l2.6 0 l0 2 l-4.6 0 z"></path></g>
			</g>
		</svg>
	